<svg width="136" height="30" viewBox="0 0 136 30" fill="none" xmlns="http://www.w3.org/2000/svg">
<path d="M31.7955 9.66335V7.45455H43.4006V9.66335H38.9048V22H36.2912V9.66335H31.7955ZM54.5987 22V7.45455H60.0533C61.1707 7.45455 62.1082 7.64867 62.8658 8.03693C63.6281 8.42519 64.2034 8.9697 64.5916 9.67045C64.9846 10.3665 65.1811 11.1785 65.1811 12.1065C65.1811 13.0393 64.9822 13.849 64.5845 14.5355C64.1915 15.2173 63.6115 15.7453 62.8445 16.1193C62.0774 16.4886 61.1352 16.6733 60.0178 16.6733H56.1328V14.4858H59.6626C60.3161 14.4858 60.8511 14.3958 61.2678 14.2159C61.6844 14.0312 61.9922 13.7637 62.1911 13.4134C62.3946 13.0582 62.4964 12.6226 62.4964 12.1065C62.4964 11.5904 62.3946 11.1501 62.1911 10.7855C61.9875 10.4162 61.6773 10.1368 61.2607 9.94744C60.844 9.75331 60.3066 9.65625 59.6484 9.65625H57.2337V22H54.5987ZM62.1129 15.4091L65.7138 22H62.7734L59.2365 15.4091H62.1129ZM76.5675 22V7.45455H86.0277V9.66335H79.2024V13.6122H85.5376V15.821H79.2024V19.7912H86.0845V22H76.5675ZM97.407 22V20.3594L104.864 9.66335H97.3643V7.45455H108.131V9.09517L100.681 19.7912H108.174V22H97.407ZM121.553 22H118.74L123.861 7.45455H127.114L132.241 22H129.429L125.544 10.4375H125.43L121.553 22ZM121.645 16.2969H129.315V18.4134H121.645V16.2969Z" fill="white"/>
<path d="M19.9827 8.71782C19.9342 8.37724 19.7792 8.05074 19.5161 7.78971C18.8701 7.14915 17.8135 7.18685 17.17 7.83032L13.8476 11.1525L6.13472 11.1533L2.81319 7.83197C2.17259 7.19141 2.13115 6.14066 2.76471 5.49305C3.02452 5.22746 3.35062 5.07001 3.68957 5.01905H4.17976L16.2932 5.01822C18.3306 5.01822 19.9827 6.66976 19.9827 8.70705V8.71782Z" fill="url(#paint0_linear_38_21)"/>
<path d="M6.13587 18.8657L2.78865 22.2127C2.14888 22.8525 1.11256 22.8516 0.473615 22.2127C0.195579 21.9347 0.0377069 21.5809 0.00124309 21.2183C0.00124309 21.2167 0.00124309 21.2146 0.000414362 21.2121V20.8985C0.00124309 20.896 0.00124309 20.8939 0.00124309 20.8923L0 8.70788C0 6.67059 1.65206 5.01863 3.68948 5.01863C3.35053 5.06959 3.02443 5.22704 2.76462 5.49263C2.13106 6.14024 2.1725 7.19099 2.8131 7.83156L6.13463 11.1529L6.13545 18.8653L6.13587 18.8657Z" fill="url(#paint1_linear_38_21)"/>
<path d="M16.1101 24.9992C16.5029 24.9805 16.8891 24.821 17.1895 24.5206C17.8284 23.8817 17.8293 22.8454 17.1895 22.2057L13.8485 18.8649L13.8477 11.1525L17.17 7.83032C17.8135 7.18686 18.8701 7.14916 19.5161 7.78972C19.7792 8.05075 19.9342 8.37683 19.9827 8.71783V8.71949V9.18479V9.18645L19.9835 21.3099C19.9835 23.3472 18.3319 24.9992 16.2945 24.9992H16.1109H16.1101Z" fill="url(#paint2_linear_38_21)"/>
<path d="M19.9824 9.1848V8.7195C20.0056 8.8728 20.0056 9.03149 19.9824 9.1848Z" fill="white"/>
<path d="M17.1899 24.5206C16.8895 24.821 16.5038 24.9805 16.1105 24.9991C16.1089 24.9991 16.106 25 16.1035 24.9991L15.9618 25C15.9593 24.9991 15.9572 24.9991 15.9539 24.9991L3.69045 25C1.65304 25 0.000976562 23.3484 0.000976562 21.3107V21.2179C0.0374404 21.5805 0.195312 21.9343 0.473349 22.2123C1.11229 22.8512 2.14861 22.8521 2.78839 22.2123L6.1356 18.8653L13.8485 18.8645L17.1895 22.2053C17.8293 22.845 17.8285 23.8813 17.1895 24.5202L17.1899 24.5206Z" fill="url(#paint3_linear_38_21)"/>
<path d="M4.17964 5.01863H3.68945C3.85147 4.99377 4.01763 4.99377 4.17964 5.01863Z" fill="white"/>
<defs>
<linearGradient id="paint0_linear_38_21" x1="20.6593" y1="8.10171" x2="2.75891" y2="8.07104" gradientUnits="userSpaceOnUse">
<stop offset="0.43" stop-color="#ACAEF8"/>
<stop offset="1" stop-color="#6366F1"/>
</linearGradient>
<linearGradient id="paint1_linear_38_21" x1="3.20675" y1="5.40894" x2="2.93164" y2="21.9948" gradientUnits="userSpaceOnUse">
<stop offset="0.43" stop-color="#ACAEF8"/>
<stop offset="1" stop-color="#6366F1"/>
</linearGradient>
<linearGradient id="paint2_linear_38_21" x1="16.5853" y1="24.9677" x2="17.2267" y2="8.04578" gradientUnits="userSpaceOnUse">
<stop offset="0.43" stop-color="#ACAEF8"/>
<stop offset="1" stop-color="#6366F1"/>
</linearGradient>
<linearGradient id="paint3_linear_38_21" x1="0.674729" y1="22.0114" x2="16.8949" y2="21.8891" gradientUnits="userSpaceOnUse">
<stop offset="0.43" stop-color="#ACAEF8"/>
<stop offset="1" stop-color="#6366F1"/>
</linearGradient>
</defs>
</svg>
